<?xml version="1.0" standalone="no"?>
<!DOCTYPE svg PUBLIC "-//W3C//DTD SVG 20010904//EN"
 "http://www.w3.org/TR/2001/REC-SVG-20010904/DTD/svg10.dtd">
<svg version="1.0" xmlns="http://www.w3.org/2000/svg"
 width="1200.000000pt" height="1200.000000pt" viewBox="0 0 1200.000000 1200.000000"
 preserveAspectRatio="xMidYMid meet">
<metadata>
Created by potrace 1.14, written by Peter Selinger 2001-2017
</metadata>
<g transform="translate(0.000000,1200.000000) scale(0.100000,-0.100000)"
fill="#000000" stroke="none">
<path d="M5837 11994 c-1 -1 -69 -4 -152 -8 -82 -3 -168 -8 -190 -10 -38 -5
-109 -12 -205 -21 -25 -3 -58 -7 -75 -10 -16 -3 -51 -7 -76 -10 -26 -3 -57 -8
-70 -10 -13 -3 -41 -7 -64 -10 -22 -3 -47 -8 -55 -10 -8 -2 -30 -7 -47 -10
-86 -14 -100 -16 -133 -25 -19 -5 -51 -12 -70 -15 -35 -6 -174 -40 -280 -68
-710 -189 -1407 -529 -2015 -982 -66 -50 -131 -99 -145 -111 -14 -12 -70 -59
-125 -104 -235 -196 -539 -503 -762 -770 -349 -420 -693 -989 -902 -1495 -5
-11 -13 -31 -20 -45 -15 -34 -99 -255 -116 -305 -63 -184 -163 -534 -181 -628
-8 -43 -9 -49 -17 -72 -3 -11 -8 -38 -12 -60 -3 -22 -7 -47 -10 -55 -8 -28
-53 -302 -61 -370 -3 -25 -7 -56 -10 -70 -2 -14 -7 -56 -10 -95 -3 -38 -7 -86
-9 -105 -26 -234 -26 -770 0 -1045 10 -101 13 -127 24 -220 33 -263 86 -532
162 -825 54 -206 196 -614 270 -777 10 -23 19 -44 19 -47 0 -7 106 -231 152
-321 84 -164 184 -342 253 -450 142 -222 234 -355 363 -520 48 -60 91 -115 97
-121 5 -7 24 -29 42 -50 18 -22 42 -51 55 -65 13 -14 48 -55 78 -89 127 -147
408 -419 595 -576 362 -305 764 -570 1185 -780 100 -50 279 -134 285 -134 3 0
28 -11 57 -24 279 -128 799 -287 1173 -360 173 -34 200 -39 360 -61 22 -3 54
-7 70 -10 17 -2 62 -7 100 -10 39 -4 80 -8 92 -10 112 -19 725 -27 933 -13
173 12 443 42 560 63 14 2 68 11 120 20 300 51 721 167 1035 285 272 102 656
283 840 395 41 25 77 45 79 45 8 0 261 160 356 225 69 47 271 196 340 251 145
116 324 277 485 439 232 231 314 321 455 498 8 11 20 24 25 31 36 40 199 266
283 392 234 351 433 730 592 1128 75 190 205 586 226 690 2 10 10 42 18 70 18
64 59 258 85 401 21 115 26 147 36 230 4 28 8 61 11 75 2 14 6 50 9 80 3 30 8
71 10 90 2 19 7 73 10 120 3 47 8 117 10 155 6 89 6 501 0 580 -2 33 -7 103
-10 155 -3 52 -7 111 -9 130 -3 19 -7 62 -11 95 -3 33 -8 71 -10 85 -2 14 -6
48 -10 75 -5 43 -11 83 -40 250 -18 103 -64 318 -85 395 -88 323 -161 545
-267 805 -114 281 -299 646 -442 870 -28 44 -58 95 -67 113 -9 17 -20 32 -25
32 -5 0 -9 6 -9 13 0 6 -18 36 -40 65 -22 29 -40 54 -40 57 0 10 -207 284
-290 384 -225 272 -437 488 -741 756 -53 48 -268 217 -329 261 -30 21 -57 41
-60 45 -11 14 -313 211 -430 281 -412 246 -863 447 -1306 583 -83 25 -160 48
-170 50 -11 2 -62 16 -114 30 -52 13 -160 39 -240 56 -182 38 -167 35 -220 44
-25 4 -54 9 -65 11 -17 3 -164 24 -280 39 -16 2 -61 6 -100 10 -38 3 -83 8
-100 10 -83 10 -619 26 -628 19z m390 -1148 c94 -3 177 -8 185 -10 7 -3 49 -7
93 -11 98 -7 255 -30 395 -57 58 -11 116 -22 130 -24 14 -3 86 -20 160 -39
705 -182 1336 -503 1901 -966 163 -134 413 -375 532 -514 33 -38 63 -72 66
-75 12 -9 126 -153 203 -255 118 -157 263 -381 356 -550 45 -81 206 -412 222
-455 7 -19 21 -53 31 -75 70 -163 197 -569 234 -750 3 -11 11 -51 19 -90 23
-104 40 -213 61 -370 4 -27 8 -61 10 -75 3 -22 7 -66 20 -245 5 -66 5 -520 0
-565 -2 -19 -6 -75 -10 -125 -12 -147 -14 -166 -31 -285 -12 -80 -46 -268 -54
-300 -5 -19 -12 -51 -15 -70 -8 -49 -60 -245 -100 -375 -91 -300 -218 -597
-376 -884 -86 -158 -86 -158 -141 -244 -21 -32 -38 -60 -38 -63 0 -9 -199
-286 -269 -374 -229 -286 -476 -538 -736 -751 -230 -189 -524 -386 -780 -524
-38 -21 -76 -43 -84 -49 -8 -6 -15 -9 -15 -7 -1 2 -30 -11 -66 -29 -81 -40
-254 -117 -345 -153 -295 -117 -674 -223 -975 -272 -19 -3 -60 -10 -90 -15
-30 -5 -84 -12 -120 -16 -36 -3 -73 -8 -83 -9 -9 -2 -56 -7 -105 -10 -48 -3
-112 -8 -142 -11 -77 -7 -483 -6 -555 1 -99 9 -156 14 -235 20 -41 3 -82 8
-90 10 -8 2 -40 7 -70 10 -192 22 -556 106 -791 181 -275 88 -661 255 -894
386 -534 302 -1030 721 -1407 1188 -314 390 -549 793 -748 1285 -103 253 -216
656 -260 925 -7 41 -14 84 -16 94 -12 67 -31 233 -39 346 -4 47 -8 96 -11 110
-5 31 -5 515 1 590 4 52 11 127 21 230 2 25 7 63 10 85 3 22 7 51 9 65 29 203
58 347 111 550 105 404 261 787 472 1160 56 99 260 416 306 475 93 120 224
283 258 322 207 233 473 485 663 628 22 16 50 38 61 48 12 10 80 59 150 109
541 378 1132 637 1764 773 102 22 88 19 264 49 72 13 122 19 231 31 33 3 78 8
100 11 22 2 132 7 245 10 113 4 207 8 208 10 2 1 9 1 15 -1 7 -2 89 -6 184 -9z"/>
<path d="M5778 9945 c-1 -1 -43 -6 -93 -10 -93 -7 -107 -8 -190 -19 -112 -15
-132 -19 -240 -39 -625 -121 -1233 -406 -1740 -816 -110 -90 -151 -127 -295
-271 -163 -163 -243 -253 -361 -410 -65 -86 -92 -125 -146 -206 -284 -430
-491 -944 -587 -1459 -17 -90 -47 -315 -53 -401 -15 -191 -7 -691 11 -745 3
-8 7 -41 10 -74 5 -50 19 -138 52 -317 3 -15 16 -72 30 -125 14 -54 27 -107
29 -119 10 -44 107 -329 116 -338 5 -6 9 -16 9 -23 0 -19 85 -214 147 -338
494 -985 1365 -1713 2419 -2025 76 -22 151 -43 166 -45 15 -3 38 -9 52 -15 15
-5 26 -8 26 -5 0 2 14 0 32 -5 17 -5 49 -12 72 -16 22 -3 43 -7 46 -9 3 -2 26
-6 50 -9 25 -4 56 -9 70 -11 14 -2 45 -7 70 -10 25 -4 56 -8 70 -10 182 -27
765 -28 905 -1 11 2 47 7 80 10 49 6 140 21 246 41 650 125 1299 441 1804 878
140 121 339 320 430 431 22 26 45 53 51 59 6 7 46 59 90 117 260 342 483 766
603 1145 13 39 25 77 28 85 3 8 7 20 9 25 1 6 14 54 29 108 14 54 28 106 30
115 2 9 10 46 19 82 21 90 51 274 61 368 36 353 34 669 -6 967 -6 44 -14 84
-19 88 -4 5 -747 9 -1651 10 l-1644 2 -1 675 0 675 -712 2 -712 2 -596 -596
-596 -596 434 -434 433 -433 261 261 260 260 0 -1163 c-1 -640 0 -1170 2
-1179 4 -16 55 -17 612 -17 l608 0 4 27 c1 14 3 308 2 653 0 440 3 628 10 631
10 3 2162 1 2177 -2 6 -1 -17 -97 -51 -213 -70 -234 -218 -549 -353 -748 -41
-61 -166 -228 -197 -264 -287 -333 -589 -565 -982 -754 -59 -29 -113 -52 -120
-52 -8 0 -18 -4 -23 -9 -32 -29 -367 -127 -550 -161 -109 -20 -132 -23 -275
-39 -76 -9 -508 -7 -546 2 -11 3 -45 8 -75 11 -30 3 -66 8 -81 11 -16 3 -40 7
-55 10 -565 98 -1114 386 -1527 801 -97 98 -144 152 -280 324 -118 150 -270
425 -359 650 -41 104 -110 315 -121 372 -2 13 -9 44 -15 71 -6 26 -14 64 -17
83 -3 20 -8 46 -10 58 -2 11 -7 41 -10 66 -3 25 -7 56 -9 70 -9 66 -18 227
-18 330 0 116 11 339 17 349 2 3 7 29 10 56 13 95 18 121 43 234 201 906 864
1685 1728 2029 107 43 137 54 145 57 3 1 39 12 80 25 41 13 80 24 85 26 6 1
37 9 70 17 61 16 191 42 255 52 19 3 46 7 60 10 103 19 494 27 645 12 489 -48
946 -213 1355 -489 58 -40 107 -74 110 -77 3 -3 38 -33 79 -66 41 -33 109 -92
150 -132 l76 -72 385 385 385 384 -75 73 c-41 40 -104 97 -139 127 -35 30 -69
60 -75 65 -16 14 -80 63 -151 117 -58 43 -232 163 -267 183 -263 153 -397 221
-593 300 -215 88 -467 166 -655 204 -30 6 -66 14 -80 17 -25 5 -164 28 -230
38 -19 3 -66 8 -105 11 -38 4 -81 9 -95 12 -27 5 -556 13 -562 8z"/>
</g>
</svg>
